<!DOCTYPE svg PUBLIC "-//W3C//DTD SVG 20010904//EN" "http://www.w3.org/TR/2001/REC-SVG-20010904/DTD/svg10.dtd">
<svg version="1.0" xmlns="http://www.w3.org/2000/svg" width="442px" height="442px" viewBox="0 0 4420 4420" preserveAspectRatio="xMidYMid meet">
<g id="layer1" fill="#fbff0b" stroke="none">
 <path d="M2692 1948 c-7 -7 -12 -37 -12 -68 0 -66 4 -71 99 -121 112 -59 187 -178 199 -318 7 -87 1 -91 -148 -91 -101 0 -119 -3 -133 -18 -15 -16 -17 -48 -17 -239 0 -200 2 -221 18 -236 16 -15 48 -17 244 -17 205 0 226 2 241 18 15 16 17 49 17 253 -1 387 -32 523 -151 653 -66 72 -147 128 -243 166 -83 33 -97 35 -114 18z"/>
 </g>
<g id="layer2" fill="#ffffff" stroke="none">
 <path d="M1366 4153 c-592 -2 -833 -6 -843 -14 -18 -16 -19 -739 -1 -757 17 -17 222 -16 236 1 7 8 12 96 14 234 2 122 7 225 11 230 5 4 203 11 440 15 553 10 2423 6 2434 -5 4 -5 9 -108 11 -230 2 -138 7 -226 14 -234 14 -17 219 -18 236 -1 17 17 17 739 0 756 -12 12 -70 12 -2552 5z"/>
 <path d="M1112 3568 c-17 -17 -17 -459 0 -476 7 -7 43 -12 90 -12 131 0 118 98 118 -875 0 -973 13 -875 -118 -875 -47 0 -83 -5 -90 -12 -17 -17 -17 -459 0 -476 17 -17 1189 -17 1206 0 17 17 17 459 0 476 -7 7 -42 12 -85 12 -125 0 -113 -96 -113 875 0 822 0 835 20 855 19 19 33 20 250 20 217 0 231 -1 250 -20 19 -19 20 -33 20 -243 0 -160 3 -226 12 -235 17 -17 599 -17 616 0 17 17 17 969 0 986 -17 17 -2159 17 -2176 0z"/>
 <path d="M3682 1048 c-9 -9 -12 -74 -12 -230 0 -205 -1 -219 -20 -238 -20 -20 -29 -20 -1439 -18 -781 2 -1423 7 -1428 11 -4 5 -9 108 -11 230 -2 138 -7 226 -14 234 -14 17 -219 18 -236 1 -19 -19 -17 -741 2 -757 10 -8 446 -11 1692 -11 1528 1 1680 2 1696 17 17 15 18 44 18 383 0 271 -3 369 -12 378 -16 16 -220 16 -236 0z"/>
 </g>

</svg>